<?xml version="1.0" encoding="utf-8"?>
<!-- Generator: Adobe Illustrator 15.1.0, SVG Export Plug-In . SVG Version: 6.00 Build 0)  -->
<!DOCTYPE svg PUBLIC "-//W3C//DTD SVG 1.1//EN" "http://www.w3.org/Graphics/SVG/1.1/DTD/svg11.dtd">
<svg version="1.1" id="Layer_1" xmlns="http://www.w3.org/2000/svg" xmlns:xlink="http://www.w3.org/1999/xlink" x="0px" y="0px"
	 width="379.5px" height="181px" viewBox="0 0 379.5 181" enable-background="new 0 0 379.5 181" xml:space="preserve">
<g>
	<path fill-rule="evenodd" clip-rule="evenodd" fill="#6D6E71" d="M125.306,130.66c-28.384,6.465-47.458,10.533-47.458,10.533
		c-8.037,1.711-15.599,4.006-23.359,6.92c-2.524,0.943-4.99,1.955-7.351,3.186c-4.946,2.312-11.193,6.192-16.704,12.541
		c0,0-2.881,3.221,2.61,3.358c5.491,0.142,27.252,1.787,36.928,3.78c0,0,2.402,0.615,4.324-1.785
		c1.921-2.395,5.353-11.221,21.967-20.879c6.69-3.084,13.72-4.955,20.796-6.859C118.75,137.542,121.747,133.94,125.306,130.66"/>
	<path fill-rule="evenodd" clip-rule="evenodd" fill="#6D6E71" d="M308.699,83.4c-42.463,13.309-99.646,27.641-146.475,38.707
		c-1.963,1.9-3.324,5.596-4.581,9.411c0.609-0.122,1.211-0.249,1.824-0.369c40.562-8.313,102.42-25.237,135.39-36.688
		C297.271,91.836,301.457,88.449,308.699,83.4"/>
	<path fill-rule="evenodd" clip-rule="evenodd" fill="#6D6E71" d="M40.391,146.118c15.451-5.375,27.703-20.015,35.249-30.56
		c9.406-13.146,15.635-25.578,21.693-40.913c0.634-1.608,3.643-2.216,5.058-2.963c8.348-4.426,17.812-10.274,20.637-19.935
		c1.43-4.884,1.14-11.84-5.067-12.442c-2.486-0.248-5.896,0.54-6.892,3.194c-1.29,3.45,0.84,6.42,1.129,9.692
		c0.225,2.575-0.873,5.138-2.498,7.172c-2.377,2.981-6.42,6.364-10.145,7.196c0.004-0.007,0.004-0.007,0.004-0.014
		c0.483-3.441,1.725-6.918,2.149-10.44c0.741-6.176,0.707-13.664-3.396-18.524c-4.478-5.303-12.157-4.374-18.333-2.222
		c-15.637,5.439-30.252,22.524-39.588,35.375c-10.844,14.932-22.51,36.368-23.861,56.069
		C15.33,144.298,23.653,151.944,40.391,146.118 M82.69,47.728c11.678-3.303,10.709,12.956,8.136,22.487
		C74.425,77.173,75.303,54.043,82.69,47.728 M50.696,80.371c6.696-12.517,14.158-21.136,23.141-28.107
		c-4.862,11.894-1.774,28.674,14.277,23.209c-4.271,9.698-7.909,17.509-13.784,26.398c-4.75,7.17-12.21,17.844-20.186,21.503
		c-8.744,4.011-14.989,0.317-15.261-8.21C38.55,104.809,44.71,91.57,50.696,80.371"/>
	<path fill-rule="evenodd" clip-rule="evenodd" fill="#6D6E71" d="M366.807,44.738c-0.122-2.181-0.678-5.141-2.512-6.575
		c-1.057-0.824-2.199-1.206-3.537-1.206c-1.701,0-3.675,0.266-5.008,1.424c-0.636,0.559-1.059,1.355-1.52,2.052
		c-0.416,0.634-0.529,1.772-0.611,2.517c-0.084,0.757-0.041,1.51,0.117,2.258c0.318,1.495,0.937,2.9,1.199,4.411
		c0.437,2.534-0.459,5.168-1.92,7.318l-0.655,0.827c-0.212,0.234-0.435,0.468-0.646,0.698c-1.717,1.821-3.585,3.49-5.578,4.949
		c-1.048,0.773-2.133,1.484-3.236,2.132c-0.459,0.274-3.282,1.454-3.43,1.803c4.035-10.016,12.189-30.605,12.189-30.605
		c1.693-3.844,2.891-8.135,6.123-11.102c2.748-2.526,6.688-3.659,8.465-7.194c1.48-2.944-0.229-5.873-3.436-6.293
		c-3.86-0.499-9.104,2.721-11.674,5.426c-0.985,1.027-2.101,2.203-2.865,3.411c-1.379,2.169-2.381,4.797-3.389,7.226l-1.209,2.701
		c-1.197,2.764-2.445,5.646-3.66,8.646c-2.566,6.317-4.002,13.686-7.592,19.689c-1.797,2.996-8.83,9.089-10.848,4.729
		c-1.705-3.689,4.291-13.99,6.509-19.434c2.745-6.737,6.906-14.484,5.963-19.304c-1.911-9.782-19.733,2.296-11.389,9.198
		c-5.058,11.68-12.529,34.53-26.032,41.4c-6.259,3.18-14.302,3.964-13.553-4.393c5.529-4.911,13.018-9.301,19.521-16.537
		c6.151-6.852,19.828-32.103-1.088-24.696c-8.797,3.124-16.898,11.92-22.232,19.349c-8.198,11.426-9.698,26.885-22.776,34.125
		c2.372-7.513,2.206-9.13,1.774-15.691c-0.514-7.889-6.877-12.222-6.653-18.403c0.062-1.679,0.832-3.265,1.972-4.709
		c1.25-1.572,2.834-2.936,3.818-4.689c0.995-1.781,1.391-4.937-0.296-5.781c-0.7-0.35-1.92-0.383-2.784-0.35
		c-1.639,0.072-3.243,0.819-4.57,2.143c-3.148,3.145-4.422,7.735-6.272,11.508c-2.525,5.136-4.532,9.492-6.509,12.925
		c-5.092,8.838-12.403,17.254-15.729,23.24c-1.929,3.464-2.895,9.669-7.592,9.927c2.374-7.52,2.652-8.432,2.219-14.996
		c-0.521-7.886-7.32-12.922-7.104-19.103c0.019-0.345,0.053-0.702,0.127-1.057c0.605-2.991,3.275-4.943,5.049-7.386
		c0.961-1.33,1.298-2.502,1.402-3.958c0.146-1.989-1.037-2.885-2.856-3.056c-6.851-0.647-9.336,8.448-11.854,13.585
		c-2.406,4.909-4.459,9.371-6.508,12.925c-4.97,8.63-12.537,17.309-15.725,23.233c-0.785,1.459-1.365,4.78-2.17,5.939
		c-2.947,4.23-8.602,5.779-12.473,8.909c0.75-0.601,1.289-3.204,1.656-4.119c0.553-1.376,1.104-2.748,1.658-4.128
		c2.945-7.335,5.236-14.996,8.42-22.226c1.698-3.847,2.891-8.139,6.124-11.107c2.751-2.525,6.687-3.654,8.47-7.193
		c1.481-2.946-0.228-5.871-3.438-6.29c-3.859-0.508-8.75,2.702-11.325,5.404c-0.979,1.029-2.096,2.203-2.863,3.415
		c-1.58,2.486-2.666,5.584-3.839,8.289c-1.464,3.38-2.935,6.759-4.321,10.171c-2.566,6.314-3.998,13.686-7.592,19.688
		c-1.793,2.998-8.826,9.09-10.845,4.732c-1.707-3.688,4.289-13.991,6.507-19.434c2.747-6.744,6.907-14.489,5.967-19.306
		c-1.916-9.781-19.732,2.293-11.389,9.201c-2.566,7.016-5.829,14.727-9.218,21.7c-1.935,3.969-3.962,8.004-6.983,11.315
		c-1.695,1.857-3.884,4.076-6.378,4.687c-3.46,0.84-3.835-3.007-3.391-5.531c0.137-0.788,0.327-1.575,0.533-2.36
		c0.56-2.152,1.753-4.334,2.71-6.347c1.306-2.764,2.772-5.456,3.911-8.286c9.226-22.957,20.742-48.396,29.515-72.054
		c-2.596-0.363-9.691,1.656-12.326,3.023c-7.003,17.612-14.494,34.849-21.152,52.719c-16.547-6.288-43.735,30.687-42.299,51.203
		c1.088,15.546,21.065,0.366,25.489-6.015c0.814,13.354,19.931,4.279,26.028-2.895c3.74,5.878,14.906-1.455,18.438-4.357
		c-1.282,1.551-1.735,3.737-2.711,5.525c-8.333,5.41-27.678,15.684-29.827,27.646c-0.593,3.318-0.26,6.734,1.79,8.869
		c2.128,2.223,5.561,2.4,8.896,1.719c4.003-0.814,8.18-2.991,11.812-5.529c3.114-2.182,5.626-5.02,7.615-8.28
		c0.275-0.446,0.543-0.905,0.799-1.364c3.635-6.472,4.766-17.153,9.762-21.826c5.537-5.186,12.514-5.021,17.896-11.277
		c4.398,2.994,9.732,3.482,16.814,0.914c2.455-0.896,4.777-3.205,7.047-3.838c6.789-1.895,14.985-0.864,18.982-7.194
		c4.309,2.972,9.727,3.488,16.811,0.908c2.572-0.929,4.729-3.187,7.053-3.833c3.699-1.038,6.809-0.057,10.301-1.352
		c7.057-2.604,10.335-8.238,14.641-11.589c1.981,9.845,21.209,6.371,31.994-0.505c2.359-1.504,6.103-6.436,7.596-6.674
		c1.168-0.19,2.078,0.81,2.83,1.404c1.097,0.862,2.189,1.381,3.679,1.485c0.157,0.02,0.307-0.031,0.481-0.057
		c0.332-0.047,0.695-0.129,1.043-0.212c1.514-0.361,2.789-1.04,4.17-1.961c0.941-0.622,1.856-1.256,2.781-1.933
		c1.289-0.946,2.518-1.94,3.656-3.13l-2.913,6.112c-4.383,2.843-8.767,5.693-13.069,8.664c-3.551,2.461-6.914,5.178-10.455,7.605
		c-0.986,0.668-1.924,1.605-2.778,2.459c-1.548,1.549-3.003,3.215-4.185,5.062c-1.137,1.773-1.613,4.299-1.765,6.344
		c-0.196,2.665,0.46,4.809,2.315,6.653c1.715,1.708,3.686,2.394,6.156,2.373c4.242-0.027,8.301-1.529,12.11-3.494
		c3.496-1.802,6.604-4.349,9.112-7.409c1.162-1.415,2.195-2.936,3.1-4.525c3.008-5.289,5.314-17.831,10.303-22.498
		c2.604-2.442,6.81-4.081,10.577-6.196l1.345-0.683c0.062-0.038,0.121-0.075,0.185-0.116c4.235-2.696,8.412-5.588,11.929-9.196
		c1.74-1.788,3.307-3.754,4.541-5.919c0.615-1.077,1.145-2.206,1.566-3.364c0.445-1.216,0.619-2.372,0.869-3.613
		c0.135-0.672,0.094-1.453,0.15-2.143C366.891,46.102,366.848,45.41,366.807,44.738 M286.323,61.569
		c0.196-0.58,0.401-1.165,0.614-1.747c0.435-1.2,0.893-2.401,1.387-3.592c1.018-2.449,2.18-4.871,3.547-7.206
		c2.758-4.73,6.42-9.121,11.025-12.09c0.783-0.509,1.596-1.116,2.453-1.378c1.371-0.416,1.027,0.862,0.908,1.859
		c-0.281,2.415-1.058,4.859-2.268,7.176c-2.379,4.578-6.194,8.394-10.059,11.793c-2.668,2.345-5.44,4.542-8.15,6.831
		C286.016,63.021,286.223,61.873,286.323,61.569 M120.024,90.709c-5.322,16.065-13.486,23.086-13.486,23.086
		c-1.972,2.365-6.176,5.24-8.571,3.672c-0.059-0.036-0.122-0.078-0.181-0.125c-1.061-0.831-0.997-2.993-1.033-4.397
		c-0.173-6.707,2.561-14.21,6.698-20.45c2.061-3.108,4.566-6.017,7.493-8.341c2.366-1.877,5.875-4.583,8.896-3.315
		c0.007,0.004,0.013,0.008,0.02,0.008c2.698,1.158,1.574,5.194,0.926,7.514C120.564,89.152,120.32,89.945,120.024,90.709
		 M141.445,137.364c-1.43,2.773-3.327,5.601-5.896,7.509c-1.221,0.902-2.568,1.541-3.937,1.813
		c-1.366,0.272-3.574,0.454-4.291-0.722c-0.97-1.586,0.495-4.715,1.641-6.409c1.851-2.731,4.685-4.627,7.386-6.249
		c1.459-0.883,2.94-1.709,4.396-2.592c0.718-0.436,1.432-0.877,2.129-1.35c0.279-0.188,1.854-1.094,1.911-1.398
		C144.174,131.125,142.997,134.353,141.445,137.364 M184.371,104.523c7.868-1.263,13.303-12.413,7.594-15.896
		c4.09-5.19,7.709-10.743,10.307-17.08C209.312,81.849,200.811,108.826,184.371,104.523 M227.214,94.402
		c7.866-1.264,13.304-12.406,7.593-15.893c4.092-5.19,7.709-10.745,10.303-17.074C252.152,71.728,243.65,98.709,227.214,94.402
		 M316.434,97.186c-1.531,2.66-3.578,5.34-6.252,6.898c-1.623,0.941-6.285,2.25-7.316,0.511c-0.158-0.259-0.229-0.587-0.194-1.005
		c0.052-0.704,0.207-1.43,0.409-2.141c0.365-1.279,0.964-2.527,1.78-3.664c1.897-2.644,4.684-4.474,7.348-6.072
		c1.437-0.861,2.886-1.672,4.32-2.539c0.704-0.426,1.401-0.868,2.091-1.332c0.27-0.182,1.816-1.075,1.876-1.373
		C319.796,90.072,318.372,93.812,316.434,97.186"/>
</g>
</svg>
